<?xml version="1.0" standalone="no"?>
<!DOCTYPE svg PUBLIC "-//W3C//DTD SVG 20010904//EN"
 "http://www.w3.org/TR/2001/REC-SVG-20010904/DTD/svg10.dtd">
<svg version="1.0" xmlns="http://www.w3.org/2000/svg"
 width="512.000000pt" height="512.000000pt" viewBox="0 0 512.000000 512.000000"
 preserveAspectRatio="xMidYMid meet">
<metadata>
Created by potrace 1.16, written by Peter Selinger 2001-2019
</metadata>
<g transform="translate(0.000000,512.000000) scale(0.100000,-0.100000)"
fill="#f1f1f1" stroke="none">
<path d="M705 4501 c-46 -21 -79 -54 -94 -94 -15 -40 -15 -2854 0 -2894 14
-39 67 -91 103 -102 17 -6 117 -15 221 -21 601 -35 1061 -210 1414 -536 l71
-66 0 1467 c0 1340 -1 1469 -16 1498 -61 118 -259 331 -400 429 -249 175 -566
283 -944 323 -196 21 -304 19 -355 -4z"/>
<path d="M4050 4505 c-368 -41 -690 -152 -932 -321 -143 -100 -340 -312 -402
-431 -15 -29 -16 -158 -16 -1498 l0 -1467 71 66 c353 326 813 501 1414 536
105 6 204 15 221 21 36 11 89 63 103 102 15 40 15 2854 0 2894 -15 40 -48 73
-94 94 -48 22 -185 24 -365 4z"/>
<path d="M130 3878 c-50 -14 -88 -44 -110 -89 -20 -38 -20 -59 -18 -1558 l3
-1520 21 -28 c29 -38 79 -71 122 -79 25 -5 97 5 227 30 362 69 627 96 962 96
307 0 531 -24 808 -85 29 -6 27 -4 -23 44 -123 117 -352 244 -567 314 -217 71
-396 101 -680 117 -106 5 -197 15 -221 24 -152 53 -251 150 -310 302 -18 47
-19 103 -22 1247 l-3 1197 -77 -1 c-42 0 -93 -5 -112 -11z"/>
<path d="M4798 2693 c-3 -1144 -4 -1200 -22 -1247 -59 -152 -158 -249 -310
-302 -24 -9 -115 -19 -221 -24 -463 -25 -810 -125 -1096 -315 -116 -77 -219
-170 -179 -161 259 59 511 86 812 86 336 0 601 -27 963 -96 130 -25 202 -35
227 -30 43 8 93 41 122 79 l21 28 3 1520 c2 1499 2 1520 -18 1558 -36 72 -102
101 -227 101 l-72 0 -3 -1197z"/>
</g>
</svg>
