<?xml version="1.0" standalone="no"?>
<!DOCTYPE svg PUBLIC "-//W3C//DTD SVG 20010904//EN"
 "http://www.w3.org/TR/2001/REC-SVG-20010904/DTD/svg10.dtd">
<svg version="1.0" xmlns="http://www.w3.org/2000/svg"
 width="512.000000pt" height="512.000000pt" viewBox="0 0 512.000000 512.000000"
 preserveAspectRatio="xMidYMid meet">
<metadata>
Created by potrace 1.16, written by Peter Selinger 2001-2019
</metadata>
<g transform="translate(0.000000,512.000000) scale(0.100000,-0.100000)"
fill="#717171" stroke="none">
<path d="M1479 4353 c-51 -8 -132 -66 -164 -117 -24 -40 -30 -62 -33 -122 -5
-91 9 -135 62 -192 82 -90 -105 -82 1854 -82 1915 0 1763 -6 1842 67 58 51 80
102 80 186 0 109 -42 183 -132 233 l-53 29 -1715 1 c-943 1 -1727 -1 -1741 -3z"/>
<path d="M166 2805 c-143 -51 -209 -226 -139 -366 31 -60 92 -112 151 -129 52
-14 4712 -14 4764 0 59 17 120 69 151 129 72 144 -3 330 -151 371 -25 7 -798
10 -2387 10 -1972 -1 -2356 -3 -2389 -15z"/>
<path d="M2439 1253 c-159 -81 -187 -305 -53 -423 80 -70 -23 -65 1329 -65
l1220 0 41 22 c98 52 144 128 144 238 0 84 -21 134 -76 187 -77 73 22 68
-1332 68 l-1218 0 -55 -27z"/>
</g>
</svg>
