<?xml version="1.0" standalone="no"?>
<!DOCTYPE svg PUBLIC "-//W3C//DTD SVG 20010904//EN"
 "http://www.w3.org/TR/2001/REC-SVG-20010904/DTD/svg10.dtd">
<svg version="1.0" xmlns="http://www.w3.org/2000/svg"
 width="512.000000pt" height="512.000000pt" viewBox="0 0 512.000000 512.000000"
 preserveAspectRatio="xMidYMid meet">
<metadata>
Created by potrace 1.16, written by Peter Selinger 2001-2019
</metadata>
<g transform="translate(0.000000,512.000000) scale(0.100000,-0.100000)"
fill="#666666" stroke="none">
<path d="M2343 5106 c-315 -60 -543 -253 -645 -546 -39 -112 -49 -184 -55
-382 l-6 -198 933 0 933 0 -6 203 c-4 158 -10 219 -26 278 -86 328 -301 543
-629 631 -100 26 -389 35 -499 14z"/>
<path d="M3951 4117 c-18 -7 -51 -28 -72 -45 l-39 -33 0 -622 c0 -656 -8 -842
-40 -986 -100 -451 -405 -781 -835 -906 -255 -73 -555 -73 -810 0 -430 125
-735 455 -835 906 -32 144 -40 330 -40 982 l0 619 -22 19 c-100 85 -230 86
-320 1 l-28 -26 0 -686 c0 -816 4 -868 87 -1125 79 -245 269 -536 455 -696
261 -225 534 -356 838 -403 l75 -11 3 -283 2 -282 -364 0 -363 0 -92 -265
c-50 -146 -91 -267 -91 -270 0 -3 482 -5 1071 -5 1015 0 1070 1 1065 18 -3 9
-43 130 -89 267 l-84 250 -337 3 -336 2 2 283 3 282 75 11 c294 46 588 186
831 397 237 207 421 515 503 842 41 163 46 269 46 985 l0 688 -31 27 c-74 61
-164 86 -228 62z"/>
<path d="M1642 3203 c3 -620 4 -629 26 -716 61 -230 175 -402 340 -511 174
-115 416 -168 657 -146 255 25 426 99 581 254 113 113 177 227 227 406 20 72
21 102 24 708 l4 632 -931 0 -931 0 3 -627z"/>
</g>
</svg>
