<?xml version="1.0" standalone="no"?>
<!DOCTYPE svg PUBLIC "-//W3C//DTD SVG 20010904//EN"
 "http://www.w3.org/TR/2001/REC-SVG-20010904/DTD/svg10.dtd">
<svg version="1.0" xmlns="http://www.w3.org/2000/svg"
 width="512.000000pt" height="512.000000pt" viewBox="0 0 512.000000 512.000000"
 preserveAspectRatio="xMidYMid meet">
<metadata>
Created by potrace 1.16, written by Peter Selinger 2001-2019
</metadata>
<g transform="translate(0.000000,512.000000) scale(0.100000,-0.100000)"
fill="#666666" stroke="none">
<path d="M3395 5110 c-34 -14 -64 -54 -354 -474 l-283 -409 734 -734 735 -735
419 290 c230 160 430 302 443 316 26 27 39 102 27 153 -5 19 -246 267 -779
801 -425 425 -784 780 -799 788 -29 15 -111 18 -143 4z"/>
<path d="M2405 3718 c-99 -144 -199 -283 -224 -310 -55 -61 -148 -128 -234
-169 -135 -63 -130 -62 -634 -68 -446 -6 -463 -7 -489 -27 -15 -11 -36 -32
-47 -46 -27 -37 -777 -2886 -777 -2953 0 -88 57 -145 145 -145 67 0 2916 750
2953 777 14 11 35 32 46 47 20 26 21 43 27 489 6 504 5 499 68 634 41 86 108
179 169 234 27 24 165 125 308 223 142 98 261 181 264 183 4 4 -1382 1393
-1390 1393 -3 -1 -86 -118 -185 -262z m-487 -1404 c208 -48 356 -202 400 -416
51 -244 -102 -499 -351 -586 -62 -21 -84 -24 -176 -20 -86 3 -118 9 -171 31
l-65 27 -435 -434 c-239 -239 -445 -439 -457 -445 -59 -30 -145 -1 -183 61
-22 36 -26 97 -9 131 6 12 206 218 445 457 l434 435 -27 65 c-31 76 -42 214
-24 300 31 145 145 288 281 353 118 57 219 69 338 41z"/>
<path d="M1738 2029 c-53 -15 -123 -81 -143 -134 -26 -65 -17 -160 18 -214 42
-63 97 -94 174 -99 85 -6 141 16 192 74 125 142 36 366 -151 379 -29 2 -70 -1
-90 -6z"/>
</g>
</svg>
