<?xml version="1.0" standalone="no"?>
<!DOCTYPE svg PUBLIC "-//W3C//DTD SVG 20010904//EN"
 "http://www.w3.org/TR/2001/REC-SVG-20010904/DTD/svg10.dtd">
<svg version="1.0" xmlns="http://www.w3.org/2000/svg"
 width="512.000000pt" height="512.000000pt" viewBox="0 0 512.000000 512.000000"
 preserveAspectRatio="xMidYMid meet">
<metadata>
Created by potrace 1.16, written by Peter Selinger 2001-2019
</metadata>
<g transform="translate(0.000000,512.000000) scale(0.100000,-0.100000)"
fill="#717171" stroke="none">
<path d="M1825 5100 c-467 -72 -877 -280 -1210 -615 -343 -344 -546 -757 -605
-1235 -13 -109 -13 -391 0 -500 38 -304 146 -613 303 -860 173 -275 436 -534
708 -698 270 -162 568 -264 879 -302 128 -15 412 -12 542 6 373 52 711 187
1000 400 34 24 65 43 69 42 4 -2 305 -295 669 -653 364 -357 675 -658 693
-667 68 -38 176 -15 219 45 26 37 36 124 18 167 -9 23 -942 953 -1314 1311
l-39 38 62 73 c142 166 297 435 370 642 188 533 157 1116 -84 1614 -111 229
-236 404 -423 590 -339 338 -786 553 -1272 612 -137 16 -447 11 -585 -10z
m478 -320 c772 -64 1413 -597 1610 -1340 40 -152 52 -252 52 -440 0 -188 -12
-288 -52 -440 -84 -315 -237 -582 -469 -814 -488 -489 -1218 -658 -1877 -435
-520 176 -939 582 -1120 1084 -185 513 -129 1072 153 1527 330 531 896 851
1535 866 28 1 103 -3 168 -8z"/>
</g>
</svg>
