<?xml version="1.0" standalone="no"?>
<!DOCTYPE svg PUBLIC "-//W3C//DTD SVG 20010904//EN"
 "http://www.w3.org/TR/2001/REC-SVG-20010904/DTD/svg10.dtd">
<svg version="1.0" xmlns="http://www.w3.org/2000/svg"
 width="512.000000pt" height="512.000000pt" viewBox="0 0 512.000000 512.000000"
 preserveAspectRatio="xMidYMid meet">
<metadata>
Created by potrace 1.16, written by Peter Selinger 2001-2019
</metadata>
<g transform="translate(0.000000,512.000000) scale(0.100000,-0.100000)"
fill="#000000" stroke="none">
<path d="M2340 4269 c-631 -73 -1295 -460 -1913 -1118 -144 -152 -310 -351
-381 -454 -44 -65 -46 -72 -46 -137 0 -65 2 -72 46 -137 69 -101 236 -301 371
-444 565 -601 1150 -971 1728 -1094 466 -100 950 -27 1426 213 93 47 119 65
143 100 40 57 48 149 18 208 -38 75 -102 114 -185 114 -46 0 -73 -9 -174 -59
-431 -212 -810 -261 -1213 -158 -343 88 -735 311 -1095 622 -130 113 -394 381
-509 518 l-98 117 98 117 c569 673 1223 1102 1802 1178 525 69 1057 -131 1649
-620 138 -114 429 -405 557 -557 l98 -118 -43 -52 c-85 -103 -259 -294 -344
-378 -103 -101 -125 -139 -125 -215 0 -152 148 -249 285 -186 69 31 334 307
528 549 144 178 157 203 157 283 0 63 -3 72 -44 133 -64 95 -236 302 -378 452
-624 666 -1289 1052 -1933 1124 -105 12 -318 11 -425 -1z"/>
<path d="M2447 3430 c-286 -35 -549 -224 -676 -485 -64 -130 -85 -227 -85
-385 0 -147 17 -237 69 -353 154 -350 525 -562 902 -517 372 45 658 293 756
655 30 113 30 317 0 430 -85 315 -326 556 -633 634 -91 23 -241 32 -333 21z
m206 -415 c238 -50 407 -289 369 -521 -33 -200 -192 -360 -391 -394 -247 -41
-490 139 -534 395 -39 226 132 469 366 520 81 18 108 18 190 0z"/>
</g>
</svg>
